<svg width="500" height="469" viewBox="0 0 500 469" fill="none" xmlns="http://www.w3.org/2000/svg">
<g clip-path="url(#clip0_13_4292)">
<path d="M265.451 6.63519H372.328L496.063 233.72H389.187L265.451 6.63519Z" fill="white"/>
<path fill-rule="evenodd" clip-rule="evenodd" d="M262.066 4.62475C262.776 3.43032 264.062 2.69818 265.451 2.69818H372.328C373.769 2.69818 375.095 3.48581 375.785 4.75146L499.52 231.836C500.185 233.056 500.157 234.536 499.448 235.73C498.739 236.925 497.452 237.657 496.063 237.657H389.187C387.745 237.657 386.419 236.869 385.729 235.604L261.994 8.51892C261.329 7.29905 261.357 5.81917 262.066 4.62475ZM272.08 10.5722L391.525 229.783H489.434L369.989 10.5722H272.08Z" fill="#21272A"/>
<path d="M265.451 460.805H372.328L496.063 233.72H389.187L265.451 460.805Z" fill="white"/>
<path fill-rule="evenodd" clip-rule="evenodd" d="M262.066 462.815C262.776 464.009 264.062 464.742 265.451 464.742H372.328C373.769 464.742 375.095 463.954 375.785 462.688L499.52 235.604C500.185 234.384 500.157 232.904 499.448 231.709C498.739 230.515 497.452 229.783 496.063 229.783H389.187C387.745 229.783 386.419 230.57 385.729 231.836L261.994 458.921C261.329 460.141 261.357 461.621 262.066 462.815ZM272.08 456.868L391.525 237.657H489.434L369.989 456.868H272.08Z" fill="#21272A"/>
<path fill-rule="evenodd" clip-rule="evenodd" d="M263.566 6.63519L193.856 114.291L259.077 233.72L193.856 353.149L263.566 460.805L387.499 233.865L387.404 233.72L387.499 233.575L263.566 6.63519Z" fill="#FFD54F"/>
<path fill-rule="evenodd" clip-rule="evenodd" d="M263.714 2.70094C265.1 2.75281 266.357 3.53058 267.022 4.74823L390.954 231.688C391.3 232.321 391.459 233.024 391.433 233.72C391.459 234.416 391.3 235.119 390.954 235.752L267.022 462.692C266.357 463.909 265.1 464.687 263.714 464.739C262.327 464.791 261.016 464.109 260.262 462.944L190.552 355.289C189.766 354.076 189.709 352.53 190.401 351.262L254.591 233.72L190.401 116.178C189.709 114.909 189.766 113.364 190.552 112.151L260.262 4.49532C261.016 3.33076 262.327 2.64907 263.714 2.70094ZM198.436 114.462L262.532 231.833C263.175 233.009 263.175 234.431 262.532 235.607L198.436 352.978L263.279 453.117L383.092 233.72L263.279 14.3228L198.436 114.462Z" fill="#21272A"/>
<path d="M78.5505 6.63519H185.427L309.162 233.72H202.286L78.5505 6.63519Z" fill="white"/>
<path fill-rule="evenodd" clip-rule="evenodd" d="M75.1655 4.62475C75.8749 3.43032 77.1613 2.69818 78.5505 2.69818H185.427C186.868 2.69818 188.194 3.48581 188.884 4.75146L312.619 231.836C313.284 233.056 313.257 234.536 312.547 235.73C311.838 236.925 310.552 237.657 309.162 237.657H202.286C200.845 237.657 199.518 236.869 198.829 235.604L75.0934 8.51892C74.4287 7.29905 74.4561 5.81917 75.1655 4.62475ZM85.1793 10.5722L204.624 229.783H302.534L183.089 10.5722H85.1793Z" fill="#21272A"/>
<path d="M78.5505 460.805H185.427L309.162 233.72H202.286L78.5505 460.805Z" fill="white"/>
<path fill-rule="evenodd" clip-rule="evenodd" d="M75.1655 462.815C75.8749 464.009 77.1613 464.742 78.5505 464.742H185.427C186.868 464.742 188.194 463.954 188.884 462.688L312.619 235.604C313.284 234.384 313.257 232.904 312.547 231.709C311.838 230.515 310.552 229.783 309.162 229.783H202.286C200.845 229.783 199.518 230.57 198.829 231.836L75.0934 458.921C74.4287 460.141 74.4561 461.621 75.1655 462.815ZM85.1793 456.868L204.624 237.657H302.534L183.089 456.868H85.1793Z" fill="#21272A"/>
<path fill-rule="evenodd" clip-rule="evenodd" d="M76.6657 6.63519L6.95581 114.291L72.1764 233.72L6.95581 353.149L76.6657 460.805L200.598 233.865L200.504 233.72L200.598 233.575L76.6657 6.63519Z" fill="#FFD54F"/>
<path fill-rule="evenodd" clip-rule="evenodd" d="M76.8129 2.70094C78.1994 2.75281 79.4561 3.53058 80.1211 4.74823L204.053 231.688C204.399 232.321 204.558 233.024 204.532 233.72C204.558 234.416 204.399 235.119 204.053 235.752L80.1211 462.692C79.4561 463.909 78.1994 464.687 76.8129 464.739C75.4265 464.791 74.1151 464.109 73.3611 462.944L3.65112 355.289C2.86572 354.076 2.80789 352.53 3.50047 351.262L67.6906 233.72L3.50047 116.178C2.80789 114.909 2.86572 113.364 3.65112 112.151L73.3611 4.49532C74.1152 3.33076 75.4265 2.64907 76.8129 2.70094ZM11.5352 114.462L75.6318 231.833C76.274 233.009 76.274 234.431 75.6318 235.607L11.5352 352.978L76.3781 453.117L196.191 233.72L76.3781 14.3228L11.5352 114.462Z" fill="#21272A"/>
</g>
<defs>
<clipPath id="clip0_13_4292">
<rect width="500" height="468.504" fill="white"/>
</clipPath>
</defs>
</svg>
